<svg id="Capa_1" enable-background="new 0 0 512 512" height="512" viewBox="0 0 512 512" width="512" xmlns="http://www.w3.org/2000/svg"><path d="m507.365 163.459-108.344 21.304-89.461 17.596 17.709-89.193 21.551-108.541c.68-3.441 4.265-5.47 7.572-4.285l11.28 4.049c1.628.577 2.895 1.854 3.482 3.472l5.347 15.01c.577 1.628 1.844 2.905 3.462 3.482l15.01 5.388c1.617.577 2.895 1.844 3.472 3.472l5.347 15.01c.577 1.617 1.854 2.895 3.472 3.472l15 5.378c1.617.577 2.895 1.865 3.472 3.472l5.347 15.02c.587 1.617 1.854 2.895 3.472 3.482l14.999 5.378c1.617.577 2.905 1.844 3.472 3.472l5.357 15.01c.567 1.628 1.854 2.895 3.472 3.472l15.01 5.378c1.617.587 2.884 1.865 3.451 3.482l5.367 15.02c.577 1.617 1.844 2.885 3.462 3.472l15.02 5.388c1.617.587 2.884 1.854 3.472 3.472l4.028 11.311c1.181 3.302-.859 6.877-4.3 7.557z" fill="#24d1f8"/><path d="m399.021 184.763-89.461 17.596 17.709-89.193c18.636 3.523 34.748 11.765 47.347 24.364 12.661 12.66 20.892 28.762 24.405 47.233z" fill="#21c1f8"/><path d="m395.982 146.348-9.447 6.119-76.975 49.892 49.985-76.811 6.191-9.509c4.255-6.531 11.28-9.941 18.368-9.941 5.542 0 11.126 2.091 15.442 6.408 9.849 9.849 8.118 26.26-3.564 33.842z" fill="#fb4297"/><path d="m386.535 152.467-76.975 49.892 49.985-76.811c5.46 3.4 10.497 7.407 15.072 11.981 4.542 4.543 8.529 9.54 11.918 14.938z" fill="#e2267f"/><path d="m202.359 309.56-17.585 89.399-21.315 108.406c-.68 3.441-4.255 5.481-7.561 4.296l-11.312-4.028c-1.617-.587-2.884-1.854-3.472-3.472l-5.388-15.02c-.587-1.617-1.854-2.884-3.472-3.461l-15.02-5.367c-1.617-.567-2.895-1.834-3.482-3.451l-5.378-15.01c-.577-1.617-1.844-2.905-3.472-3.472l-15.01-5.357c-1.628-.567-2.895-1.854-3.472-3.472l-5.378-14.999c-.587-1.617-1.865-2.885-3.482-3.472l-15.02-5.347c-1.607-.577-2.895-1.854-3.472-3.472l-5.378-14.999c-.577-1.617-1.854-2.895-3.472-3.472l-15.01-5.347c-1.628-.577-2.895-1.854-3.472-3.472l-5.388-15.01c-.577-1.617-1.854-2.884-3.482-3.461l-15.01-5.347c-1.617-.587-2.895-1.854-3.472-3.482l-4.044-11.279c-1.185-3.307.845-6.892 4.285-7.572l108.478-21.541z" fill="#24d1f8"/><path d="m113.104 327.279 89.255-17.719-17.585 89.399c-18.595-3.534-34.676-11.775-47.244-24.343-12.693-12.692-20.924-28.825-24.426-47.337z" fill="#21c1f8"/><path d="m202.359 309.56-49.881 76.965-6.13 9.457c-7.582 11.682-23.993 13.413-33.842 3.564-4.316-4.316-6.408-9.9-6.408-15.443 0-7.088 3.41-14.113 9.941-18.368l9.498-6.181z" fill="#fb4297"/><path d="m202.359 309.56-49.881 76.965c-5.408-3.389-10.405-7.366-14.948-11.909-4.584-4.584-8.592-9.622-11.991-15.061z" fill="#e2267f"/><g fill="#fdc1dd"><path d="m217.008 387.07c-27.619 2.462-52.611-4.522-70.011-21.933-.443-.443-.876-.886-1.298-1.339 1.205-19.13.433-37.869-2.339-56.093-2.359-15.515-6.15-30.648-11.342-45.297 7.768-23.426 21.479-47.337 40.641-69.094 5.007 6.655 10.034 14.031 14.855 22.118 15.824 26.589 26.187 55.516 30.813 86 4.13 27.247 3.687 55.938-1.319 85.638z"/><path d="m326.773 255.248c4.492 23.962 4.852 49.335 1.123 75.78-23.818 23.375-50.86 39.899-77.346 48.82 2.297-25.888 1.586-51.19-2.143-75.718-5.748-37.859-18.626-73.782-38.251-106.778-5.378-9.014-10.971-17.328-16.576-24.93 19.615-17.225 40.981-30.03 62.161-38.034 10.755 8.983 27.279 24.848 41.939 47.677 14.413 22.436 24.21 47.068 29.093 73.183z"/><path d="m363.53 285.834c-.814-8.355-1.999-16.607-3.523-24.745-6.614-35.376-19.852-68.713-39.363-99.073-9.127-14.206-18.79-26.424-28.042-36.705 28.618-3.121 54.6 3.75 72.535 21.685 31.338 31.328 28.918 87.246-1.607 138.838z"/></g><path d="m329.473 329.473c-56.238 56.248-131.194 73.895-173.885 42.99 43.484 13.578 104.358-6.397 151.87-53.91 60.235-60.245 76.213-141.939 35.665-182.476-2.689-2.689-5.563-5.13-8.592-7.325 11.651 3.637 22.046 9.684 30.607 18.245 40.548 40.537 24.58 122.241-35.665 182.476z" fill="#fca5cd"/><path d="m302.625 124.63c9.312 9.913 19.271 22.105 28.6 36.626 17.361 27.007 29.138 56.661 35.027 88.135 1.553 8.298 2.698 16.72 3.418 25.262-9.681 19.044-23.164 37.788-40.196 54.819-3.463 3.463-6.994 6.779-10.593 9.947 4.84-28.419 4.886-55.636.102-81.186-4.738-25.335-14.238-49.219-28.215-70.984-15.944-24.808-34.132-41.148-44.192-49.101 19.077-8.445 38.234-13.047 56.049-13.518z" fill="#fb4297"/><path d="m369.671 274.657c-9.684 19.038-23.169 37.787-40.198 54.816-3.462 3.461-6.995 6.779-10.59 9.941 2.174-12.733 3.369-25.219 3.606-37.427 19.357-23.54 32.492-49.263 38.776-73.977 1.968 7.026 3.637 14.155 4.986 21.376 1.555 8.304 2.699 16.721 3.42 25.271z" fill="#e2267f"/><path d="m199.997 166.997c8.882 10.174 18.313 22.598 27.053 37.277 16.414 27.591 27.177 57.636 31.989 89.291 4.075 26.815 3.837 54.746-.68 83.431-17.44 6.83-34.789 10.418-50.982 10.548 6.881-30.244 8.264-59.365 4.109-86.758-3.865-25.494-12.537-49.684-25.766-71.914-6.382-10.724-13.217-19.939-19.718-27.642 5.107-6.365 10.667-12.571 16.664-18.568 5.604-5.604 11.397-10.83 17.331-15.665z" fill="#fb4297"/><path d="m210.116 373.915c16.72-3.42 34.037-10.055 50.943-19.707-.597 7.541-1.494 15.133-2.699 22.788-17.441 6.83-34.789 10.415-50.984 10.549 1.04-4.564 1.957-9.107 2.74-13.63z" fill="#e2267f"/><path d="m135.281 253.443c6.937 17.412 11.857 35.56 14.702 54.264 3.044 20.058 3.678 40.746 1.916 61.893-1.695-1.4-3.333-2.891-4.903-4.461-25.884-25.884-28.729-68.552-11.715-111.696z" fill="#fb4297"/></svg>